<svg xmlns="http://www.w3.org/2000/svg" x="0px" y="0px" width="240" height="240" viewBox="0 0 48 48">
    <path fill="#373837" d="M3.912,10.123c0.01-1.078,0.245-1.862,0.654-2.712c0.251-0.523,0.529-1.045,0.943-1.452	c0.275-0.271,0.601-0.483,0.925-0.692C7.424,4.624,8.534,3.955,9.7,4.134c3.841,0.591,7.787,0.182,11.659-0.142	c4.265-0.357,8.635-0.064,12.952-0.087c2.521-0.013,5.254,0.042,7.241,1.594c1.65,1.288,2.464,3.408,2.686,5.489	c0.222,2.081-0.356,4.174-0.236,6.264c0.316,5.496,0.005,10.765,0.242,16.146c0.08,1.805,0.135,3.639-0.307,5.391	s-1.451,3.439-3.038,4.301c-1.411,0.767-3.119,1.132-4.695,0.824c-2.232-0.436-4.546,0.056-6.819,0.083	c-0.595,0.007-1.189,0.015-1.784,0.022c-3.126,0.038-5.976-0.189-9.101-0.289C16.157,43.656,13.646,44,11.152,44	c-1.664,0-3.363-0.274-4.886-1.122c-1.131-0.63-1.854-1.832-2.19-3.083c-0.336-1.251-0.447-2.569-0.329-3.859	C4.596,26.691,3.895,9.858,3.912,10.123z"></path><path fill="#f6851f" d="M41.011,18.518l-2.246-5.149l-2.629-2.927l-5.974-3.536l-6.378-1.005l-6.661,1.46l-4.372,2.7	l-4.437,4.715l-2.191,6.816l0.22,6.262l2.983,6.29l4.011,4.193l0.809,0.64l5.191,2.191l6.605,0.775l5.589-1.483l5.337-4.042	l2.534-3.187l2.034-4.597l0.519-5.399L41.011,18.518z M39.966,27.315l-2.124,5.225l-2.417,2.663l-0.246-2.101l0.034-2.247	l-0.438-1.921l-2.125-1.685l-1.463-1.311l-3.625-0.476l-4.264,0.219l-3.059-0.499l-1.814-2.383l0.525-2.149l1.138,0.228l1.466-0.809	l2.486-0.329l1.903,0.911l2.488,2.401l2.376,0.726l2.199-0.191l0.778-1.037l-1.711-0.284h-1.595L28.797,21.2l-1.555-1.057	L26.18,18.98l-2.14-0.834l0.952-0.885l2.629,0.101l1.466,1.593l2.553,1.972h1.618l1.743,0.963l0.128-1.974l0.876-1.056l-0.58-0.859	l-1.813-0.31l-2.558-0.631l-1.841-1.71l1.247-0.575l-1.45-1.585l-2.478-1.062l-2.124-0.91l-3.948,0.664l-3.585,0.145l-2.693,1.681	l-2.094,2.655l-0.894,2.423l-0.471,2.326l1.069,5.057l1.746,3.015l4.197,3.422l3.607,1.551l-0.331,1.862l-3.478,0.748l-4.247-1.43	l-3.655-3.721L7.787,25.18l0.822-6.401l2.634-4.922l4.335-3.614l3.98-2.007l4.852-0.477l1.264-0.164l3.91,1.315l4.112,1.854	l2.831,2.663l2.147,3.202l1.485,4.963L39.966,27.315z"></path><path fill="none" stroke="#010101" stroke-miterlimit="10" d="M3.912,10.123c0.01-1.078,0.245-1.862,0.654-2.712	c0.251-0.523,0.529-1.045,0.943-1.452c0.275-0.271,0.601-0.483,0.925-0.692C7.424,4.624,8.534,3.955,9.7,4.134	c3.841,0.591,7.787,0.182,11.659-0.142c4.265-0.357,8.635-0.064,12.952-0.087c2.521-0.013,5.254,0.042,7.241,1.594	c1.65,1.288,2.464,3.408,2.686,5.489c0.222,2.081-0.356,4.174-0.236,6.264c0.316,5.496,0.005,10.765,0.242,16.146	c0.08,1.805,0.135,3.639-0.307,5.391s-1.451,3.439-3.038,4.301c-1.411,0.767-3.119,1.132-4.695,0.824	c-2.232-0.436-4.546,0.056-6.819,0.083c-0.595,0.007-1.189,0.015-1.784,0.022c-3.126,0.038-5.976-0.189-9.101-0.289	C16.157,43.656,13.646,44,11.152,44c-1.664,0-3.363-0.274-4.886-1.122c-1.131-0.63-1.854-1.832-2.19-3.083	c-0.336-1.251-0.447-2.569-0.329-3.859C4.596,26.691,3.895,9.858,3.912,10.123z"></path><path fill="none" stroke="#010101" stroke-linecap="round" stroke-linejoin="round" stroke-miterlimit="10" d="M9.955,32.182	c1.055,1.128,2.334,2.253,3.621,3.107s2.781,1.453,4.326,1.478c0.841,0.013,1.684-0.145,2.464-0.461	c0.377-0.153,0.762-0.365,0.95-0.727c0.291-0.56-0.017-1.277-0.51-1.672c-0.493-0.395-1.125-0.558-1.724-0.759	c-3.998-1.343-7.14-4.965-7.906-9.112c-0.102-0.552-0.164-1.11-0.227-1.668c-0.144-1.284-0.283-2.62,0.144-3.839	c0.148-0.421,0.359-0.817,0.572-1.21c0.731-1.353,1.501-2.727,2.66-3.737s2.801-1.602,4.264-1.129	c0.544-0.359,1.227-0.484,1.873-0.57c0.669-0.089,1.338-0.179,2.007-0.268c0.597-0.08,1.195-0.16,1.797-0.189	c0.667-0.032,1.354,0.001,1.968,0.265c0.613,0.264,1.144,0.794,1.259,1.451c0.678-0.084,1.393,0.005,1.981,0.353	s1.027,0.978,1.047,1.661c-0.307-0.09-0.635-0.181-0.941-0.088c-0.306,0.092-0.554,0.447-0.413,0.734	c0.052,0.105,0.145,0.183,0.235,0.258c0.501,0.414,1.024,0.839,1.653,1c0.228,0.059,0.465,0.08,0.693,0.143	c0.322,0.088,0.616,0.255,0.929,0.37c0.481,0.176,1.008,0.226,1.514,0.144c0.175-0.028,0.356-0.072,0.527-0.027	c0.18,0.048,0.319,0.186,0.45,0.319c0.279,0.284,0.558,0.568,0.837,0.851c-0.054,0.302-0.563,0.225-0.742,0.474	c-0.057,0.08-0.071,0.182-0.076,0.279c-0.024,0.412,0.061,0.823,0.053,1.235c-0.008,0.412-0.136,0.858-0.475,1.092	c-0.107-0.584-0.7-1.035-1.291-0.984c-0.23,0.02-0.451,0.106-0.682,0.117c-0.257,0.013-0.509-0.068-0.75-0.159	c-1.249-0.473-2.373-1.27-3.232-2.291c-0.195-0.232-0.378-0.476-0.609-0.671c-0.212-0.18-0.46-0.313-0.711-0.431	c-0.65-0.307-1.369-0.529-2.081-0.435c-0.713,0.094-1.41,0.567-1.594,1.262c0.671-0.144,1.346,0.185,1.934,0.538	c1.096,0.657,2.12,1.435,3.048,2.314c0.285,0.27,0.566,0.554,0.911,0.743c0.382,0.209,0.819,0.29,1.25,0.355	c0.935,0.142,1.88,0.225,2.825,0.249c-0.119-0.029-0.238-0.058-0.356-0.087"></path><path fill="none" stroke="#010101" stroke-linecap="round" stroke-linejoin="round" stroke-miterlimit="10" d="M18.236,18.001	c-0.126,0.155-0.085,0.382-0.038,0.576c0.068,0.279,0.144,0.557,0.248,0.825c0.083,0.215,0.201,0.4,0.307,0.601	c0.045,0.085,0.041,0.146,0.007,0.233c-0.092,0.233-0.186,0.461-0.257,0.702c-0.144,0.493-0.216,1.011-0.172,1.524	c0.069,0.789,0.439,1.572,1.085,2.028c0.643,0.454,1.403,0.915,2.187,0.988c1.392,0.13,2.452,0.333,3.847,0.249	c0.516-0.031,1.03-0.091,1.546-0.106c0.887-0.025,1.772,0.086,2.652,0.196c0.705,0.088,1.43,0.183,2.053,0.525	c0.198,0.109,0.381,0.241,0.563,0.374c1.295,0.956,2.564,2.14,2.935,3.707c0.098,0.416,0.129,0.844,0.159,1.27	c0.058,0.816,0.116,1.64-0.002,2.45c-0.118,0.81,0.053,1.302-0.531,1.876"></path><path fill="none" stroke="#010101" stroke-linecap="round" stroke-linejoin="round" stroke-miterlimit="10" d="M23.622,14.887	c0.456-0.168,0.98-0.143,1.418,0.068c0.141,0.068,0.272,0.154,0.409,0.23c0.317,0.177,0.662,0.305,1.018,0.376	c0.126,0.025,0.284,0.031,0.354-0.077"></path><path fill="none" stroke="#010101" stroke-linecap="round" stroke-linejoin="round" stroke-miterlimit="10" d="M31.27,18.688	c-0.041,0.014-0.073,0.05-0.084,0.092c0.141-0.22,0.444-0.32,0.688-0.226"></path><path fill="none" stroke="#010101" stroke-linecap="round" stroke-linejoin="round" stroke-miterlimit="10" d="M18.732,20.032	c0.365,0.348,0.885,0.5,1.389,0.508c0.505,0.008,1.002-0.115,1.488-0.252c0.488-0.138,2.034-0.398,2.38-0.386	c0.497,0.017,0.938,0.31,1.333,0.612c0.764,0.585,1.469,1.248,2.1,1.974c0.357,0.41,0.784,0.552,1.275,0.786	c0.432,0.206,0.925,0.226,1.403,0.242c0.643,0.022,1.287,0.044,1.93,0.065c0.12,0.004,0.243,0.008,0.36-0.02	c0.282-0.067,0.492-0.306,0.762-0.411"></path><path fill="none" stroke="#010101" stroke-linecap="round" stroke-linejoin="round" stroke-miterlimit="10" d="M34.826,36.02	c0.976-0.862,1.848-1.841,2.582-2.921c3.325-4.895,3.669-11.655,0.857-16.861c-2.478-4.588-7.293-7.839-12.477-8.393	c-0.266-0.028-0.532-0.05-0.799-0.064c-1.093-0.058-2.193,0.002-3.274,0.173c-1.089,0.172-2.16,0.455-3.193,0.841	c-1.026,0.384-2.014,0.869-2.944,1.449c-0.931,0.581-1.804,1.256-2.595,2.018c-0.354,0.341-0.678,0.693-1.082,0.976	c-0.379,0.266-0.66,0.598-0.935,0.969c-0.646,0.871-1.199,1.811-1.655,2.795c-0.458,0.988-0.817,2.022-1.075,3.08	c-0.258,1.059-0.415,2.142-0.466,3.231c-0.051,1.084,0.003,2.173,0.165,3.246c0.163,1.073,0.435,2.129,0.818,3.145	c0.325,0.862,0.729,1.692,1.202,2.48"></path><path fill="none" stroke="#010101" stroke-linecap="round" stroke-linejoin="round" stroke-miterlimit="10" d="M14.338,30.256	c0.15,0.369-0.027,0.848-0.003,1.245c0.024,0.397-0.417,1.99-1.655,1.308"></path><path fill="none" stroke="#010101" stroke-linecap="round" stroke-linejoin="round" stroke-miterlimit="10" d="M16.086,34.144	c0.561-0.511,0.739-1.397,0.419-2.085"></path><path fill="none" stroke="#010101" stroke-linecap="round" stroke-linejoin="round" stroke-miterlimit="10" d="M9.62,25.882	c0.271,0.123,0.602,0.025,0.832-0.165s0.379-0.457,0.524-0.718c0.1-0.181,0.202-0.368,0.22-0.574"></path><path fill="none" stroke="#010101" stroke-linecap="round" stroke-linejoin="round" stroke-miterlimit="10" d="M11.315,14.455	c0.018-0.039,0.036-0.078,0.054-0.117c-0.248,0.67-0.124,1.464,0.317,2.026"></path><path fill="none" stroke="#010101" stroke-linecap="round" stroke-linejoin="round" stroke-miterlimit="10" d="M21.844,11.698	c-0.832,0.111-1.512-0.107-1.948-0.639c-0.436-0.533-0.46-1.38-0.01-1.901c0.228-0.265,0.552-0.434,0.888-0.529	c0.417-0.118,0.891-0.122,1.256,0.111c0.365,0.233,0.563,0.75,0.345,1.124"></path><path fill="none" stroke="#010101" stroke-linecap="round" stroke-linejoin="round" stroke-miterlimit="10" d="M32.65,22.49	c0.697-0.02,1.292,0.228,1.67,0.813c0.378,0.585,0.489,0.491,0.681,1.161c0.193,0.67,0.421,1.353,0.88,1.877	c0.459,0.524,1.207,0.854,1.867,0.633c0.599-0.2,1.005-0.862,0.913-1.486c-0.092-0.625-0.673-1.14-1.304-1.158"></path><path fill="none" stroke="#010101" stroke-linecap="round" stroke-linejoin="round" stroke-miterlimit="10" d="M35.001,24.464	c-0.008,0.79,0.489,3.239,1.182,3.618c0.694,0.379,1.595,0.342,2.255-0.091"></path><path fill="none" stroke="#010101" stroke-linecap="round" stroke-linejoin="round" stroke-miterlimit="10" d="M32.072,22.37	c0.309-0.332,0.483-0.787,0.474-1.241"></path><path fill="none" stroke="#010101" stroke-linecap="round" stroke-linejoin="round" stroke-miterlimit="10" d="M18.425,12.405	c-0.879-0.117-1.913-0.439-2.244-1.222c-0.134-0.318-0.176-0.686-0.053-1.007s0.433-0.581,0.778-0.586	c0.345-0.005,0.684,0.289,0.675,0.633"></path><path fill="none" stroke="#010101" stroke-linecap="round" stroke-linejoin="round" stroke-miterlimit="10" d="M41.991,23.776 c0,9.875-7.892,18.01-17.767,18.01S5.925,33.651,5.925,23.776S14.349,5.974,24.224,5.974S41.991,13.901,41.991,23.776z"></path>
</svg>